# xmcd
#
# Track frame offsets: 
#        150
#        17082
#        38129
#        58123
#        72202
#        89613
#        114616
#        131907
#        151303
#        176594
#
# Disc length: 2522 seconds
#
# Revision: 0
# Processed by: cddbd v1.5.2PL0 Copyright (c) Steve Scherf et al.
# Submitted via: ExactAudioCopy v1.0b3
#
DISCID=8909d80a
DTITLE=Б.Т.Р. - Играта
DYEAR=2002
DGENRE=Rock
TTITLE0=Да погледна в теб
TTITLE1=Кръговрат
TTITLE2=Море от любов
TTITLE3=Няма връщане назад
TTITLE4=Вълчи времена
TTITLE5=Оловният войник
TTITLE6=Играта
TTITLE7=Роден от прахта
TTITLE8=Сън
TTITLE9=Няма връщане назад - акустична версия
EXTD=
EXTT0=
EXTT1=
EXTT2=
EXTT3=
EXTT4=
EXTT5=
EXTT6=
EXTT7=
EXTT8=
EXTT9=
PLAYORDER=
